<svg width="20" height="17" viewBox="0 0 20 17" fill="none" xmlns="http://www.w3.org/2000/svg">
<path fill-rule="evenodd" clip-rule="evenodd" d="M2.10531 0.526306C2.97734 0.526306 3.68426 1.23323 3.68426 2.10525C3.68426 2.97728 2.97734 3.6842 2.10531 3.6842C1.23329 3.6842 0.526367 2.97728 0.526367 2.10525C0.526367 1.23323 1.23329 0.526306 2.10531 0.526306ZM20.0001 1.05262H5.26321V3.15789H20.0001V1.05262ZM20.0001 7.36841H5.26321V9.47367H20.0001V7.36841ZM3.68426 8.42104C3.68426 7.54901 2.97734 6.8421 2.10531 6.8421C1.23329 6.8421 0.526367 7.54901 0.526367 8.42104C0.526367 9.29307 1.23329 9.99999 2.10531 9.99999C2.97734 9.99999 3.68426 9.29307 3.68426 8.42104ZM5.26321 15.7895V13.6842H20.0001V15.7895H5.26321ZM3.68426 14.7368C3.68426 13.8648 2.97734 13.1579 2.10531 13.1579C1.23329 13.1579 0.526367 13.8648 0.526367 14.7368C0.526367 15.6089 1.23329 16.3158 2.10531 16.3158C2.97734 16.3158 3.68426 15.6089 3.68426 14.7368Z" fill="white"/>
</svg>
