<svg width="20" height="20" viewBox="0 0 20 20" fill="none" xmlns="http://www.w3.org/2000/svg">
<path fill-rule="evenodd" clip-rule="evenodd" d="M14.4444 7.22222C14.4444 3.2335 11.2109 0 7.22222 0C3.2335 0 0 3.2335 0 7.22222C0 11.2109 3.2335 14.4444 7.22222 14.4444C9.01111 14.4444 10.6556 13.7889 11.9222 12.7111L12.2222 13.0111V13.8889L17.7778 19.4444L19.4444 17.7778L13.8889 12.2222H13.0111L12.7111 11.9222C13.7889 10.6556 14.4444 9.01111 14.4444 7.22222ZM2.22222 7.22222C2.22222 4.44444 4.44444 2.22222 7.22222 2.22222C10 2.22222 12.2222 4.44444 12.2222 7.22222C12.2222 10 10 12.2222 7.22222 12.2222C4.44444 12.2222 2.22222 10 2.22222 7.22222Z" fill="white"/>
</svg>
